# xmcd
#
# Track frame offsets: 
#        150
#        11545
#        22297
#        32095
#        46717
#        57170
#        68707
#        79595
#        94135
#        105130
#        118525
#        130875
#        145677
#        156542
#        169417
#        180485
#        194040
#        204745
#        216985
#        227280
#        239377
#        253572
#        274372
#        288232
#        298585
#
# Disc length: 4212 seconds
#
# Revision: 8
# Processed by: cddbd v1.5.2PL0 Copyright (c) Steve Scherf et al.
# Submitted via: ExactAudioCopyFreeDBPlugin 1.0
#
DISCID=6b107219
DTITLE=Marvin Gaye - The Marvin Gaye Collection [box set]
DYEAR=1990
DGENRE=Soul
TTITLE0=Once Upon A Time (with Mary Wells)
TTITLE1=What's The Matter With You Baby (with Mary Wells)
TTITLE2=I'm Yours, Your Mine (with Mary Wells)
TTITLE3=All I Got (with Mary Wells)
TTITLE4=You Can Dance (with Mary Wells)
TTITLE5=Rilleh (with Uma Page)
TTITLE6=So Good To Be Loved By You (with Uma Page)
TTITLE7=Was It A Dream (with Uma Page)
TTITLE8=Steadies (with Uma Page)
TTITLE9=It Takes Two (with Kim Weston)
TTITLE10=Exactly Like You (with Kim Weston)
TTITLE11=Teach Me Tonight (with Kim Weston)
TTITLE12=Let's Do It (Let's Fall In Love) (with Kim Weston)
TTITLE13=It's Me (with Kim Weston)
TTITLE14=Ain't No Mountain High Enough (with Tammi Terrell)
TTITLE15=Your Precious Love (with Tammi Terrell)
TTITLE16=If I Could Build My Whole World Around You (with Tammi Terrel
TTITLE16=l)
TTITLE17=If This World Were Mine (with Tammi Terrell)
TTITLE18=Ain't Nothing Like The Real Thing (with Tammi Terrell)
TTITLE19=You're All I Need To Get By (with Tammi Terrell)
TTITLE20=You Are Everything (with Diana Ross)
TTITLE21=You're A Special Part Of Me (with Diana Ross)
TTITLE22=My Mistake (with Diana Ross)
TTITLE23=Don't Knock My Love (with Diana Ross)
TTITLE24=Pops, We Love You (with Diana Ross, Smokey Robinson, and Stev
TTITLE24=ie Wonder)
EXTD=YEAR: 1990
EXTT0=
EXTT1=
EXTT2=
EXTT3=
EXTT4=
EXTT5=
EXTT6=
EXTT7=
EXTT8=
EXTT9=
EXTT10=
EXTT11=
EXTT12=
EXTT13=
EXTT14=
EXTT15=
EXTT16=
EXTT17=
EXTT18=
EXTT19=
EXTT20=
EXTT21=
EXTT22=
EXTT23=
EXTT24=
PLAYORDER=
